<svg xmlns="http://www.w3.org/2000/svg" width="213" height="223.165" viewBox="0 0 213 223.165">
  <g id="グループ_14" data-name="グループ 14" transform="translate(-1813 -2966.835)">
    <g id="長方形_137" data-name="長方形 137" transform="translate(1878 3118) rotate(90)" fill="#183052" stroke="#183052" stroke-width="1">
      <rect width="70" height="45" rx="21" stroke="none"/>
      <rect x="0.5" y="0.5" width="69" height="44" rx="20.5" fill="none"/>
    </g>
    <g id="長方形_138" data-name="長方形 138" transform="translate(2000 3120) rotate(90)" fill="#183052" stroke="#183052" stroke-width="1">
      <rect width="70" height="45" rx="21" stroke="none"/>
      <rect x="0.5" y="0.5" width="69" height="44" rx="20.5" fill="none"/>
    </g>
    <g id="長方形_139" data-name="長方形 139" transform="translate(1813 3085)" fill="#183052" stroke="#183052" stroke-width="1">
      <rect width="213" height="52" rx="26" stroke="none"/>
      <rect x="0.5" y="0.5" width="212" height="51" rx="25.5" fill="none"/>
    </g>
    <g id="長方形_146" data-name="長方形 146" transform="translate(1894 2967)" fill="#183052" stroke="#183052" stroke-width="1">
      <rect width="44" height="105" stroke="none"/>
      <rect x="0.5" y="0.5" width="43" height="104" fill="none"/>
    </g>
    <g id="合体_15" data-name="合体 15" transform="translate(1953 2966.835)" fill="#183052">
      <path d="M 40 100.2253036499023 L 5 100.2253036499023 L 5 98.43121337890625 L 5 5.383882999420166 C 5.995077133178711 5.52812671661377 6.982730388641357 5.7126145362854 7.958781719207764 5.936851978302002 C 10.5090913772583 6.521852016448975 13.01812744140625 7.385142803192139 15.41783618927002 8.503087997436523 C 17.78058242797852 9.604743003845215 20.06281852722168 10.96545219421387 22.19972801208496 12.54674243927002 C 24.32445526123047 14.12003326416016 26.32405471801758 15.92585182189941 28.14170837402344 17.91316032409668 C 29.96910858154297 19.91021537780762 31.62736320495605 22.10548782348633 33.07112884521484 24.43881607055664 C 34.5342903137207 26.80305099487305 35.79107284545898 29.32945251464844 36.80674362182617 31.94816017150879 C 38.49179840087891 36.29408645629883 39.52170944213867 40.88454437255859 39.86765289306641 45.59148788452148 L 40 47.3922004699707 L 40 100.2253036499023 Z" stroke="none"/>
      <path d="M 35 95.22531890869141 L 35 47.57546997070312 L 34.88111877441406 45.95803451538086 C 34.57147598266602 41.74524688720703 33.65081024169922 37.63962936401367 32.14511871337891 33.75624847412109 C 31.24021339416504 31.42315101623535 30.12138175964355 29.1737232208252 28.81923866271973 27.06967544555664 C 27.53921508789062 25.00096130371094 26.0704288482666 23.05617523193359 24.45216751098633 21.28767585754395 C 22.85085678100586 19.53691291809082 21.09152412414551 17.94767570495605 19.22550010681152 16.56596183776855 C 17.35728645324707 15.18348503112793 15.36483287811279 13.9951753616333 13.30638122558594 13.03538990020752 C 12.22648334503174 12.53229808807373 11.12181854248047 12.08883953094482 10 11.70769214630127 L 10 95.22531890869141 L 35 95.22531890869141 M 45 105.2253189086914 L 0 105.2253189086914 L 0 8.967808753368445e-06 C 3.058190584182739 0.02519944310188293 6.112809658050537 0.3825089633464813 9.078309059143066 1.063794732093811 C 11.97000026702881 1.727104187011719 14.81309509277344 2.705389976501465 17.52931022644043 3.970794677734375 C 20.1969051361084 5.214604377746582 22.76819038391113 6.747294902801514 25.17390441894531 8.527508735656738 C 27.55619049072266 10.29150867462158 29.79631042480469 12.31379508972168 31.83119010925293 14.53860378265381 C 33.86700057983398 16.76341438293457 35.71471405029297 19.20870018005371 37.32300186157227 21.80791282653809 C 38.94659423828125 24.4313907623291 40.34159469604492 27.23491287231445 41.46840286254883 30.14010429382324 C 43.3375244140625 34.96079635620117 44.47161865234375 40.01955795288086 44.85421371459961 45.22500991821289 L 45 45.22500991821289 L 45 105.2253189086914 Z" stroke="none" fill="#183052"/>
    </g>
    <g id="合体_16" data-name="合体 16" transform="translate(1833.118 2966.835)" fill="#183052">
      <path d="M 39.88210678100586 100.2253036499023 L 4.999997138977051 100.2253036499023 L 4.999997138977051 49.21559906005859 L 4.999997138977051 47.39190673828125 L 5.13206958770752 45.59063339233398 C 5.477233409881592 40.88299560546875 6.5047607421875 36.29141616821289 8.186069488525391 31.94341468811035 C 9.200506210327148 29.32170677185059 10.45403289794922 26.79514312744141 11.91146945953369 24.43490600585938 C 13.3508882522583 22.10210609436035 15.0046329498291 19.90670585632324 16.82765197753906 17.90828895568848 C 18.64212417602539 15.92008781433105 20.63648796081543 14.11452484130859 22.75457954406738 12.5425968170166 C 24.8830509185791 10.962815284729 27.15797805786133 9.602797508239746 29.51632499694824 8.500215530395508 C 31.90666961669922 7.383669853210449 34.40777969360352 6.520906448364258 36.94863510131836 5.936615467071533 C 37.91663360595703 5.713622570037842 38.89572143554688 5.529984474182129 39.88210678100586 5.386135578155518 L 39.88210678100586 45.22499847412109 L 39.88210678100586 100.2253036499023 Z" stroke="none"/>
      <path d="M 34.88209915161133 95.22531890869141 L 34.88209915161133 11.71945381164551 C 33.78001403808594 12.09654998779297 32.69434356689453 12.53430938720703 31.63393211364746 13.02962779998779 C 29.57886123657227 13.99043750762939 27.59407615661621 15.17736625671387 25.73436164855957 16.55767631530762 C 23.87360000610352 17.93865203857422 22.11926651000977 19.52731895446777 20.52159881591797 21.27796173095703 C 18.90788459777832 23.0469856262207 17.44293212890625 24.99203300476074 16.16571807861328 27.06193733215332 C 14.86909866333008 29.16172409057617 13.75314712524414 31.41146087646484 12.84957504272461 33.74672317504883 C 11.34650421142578 37.63374710083008 10.42769432067871 41.74162673950195 10.11869430541992 45.95624542236328 L 10.00000381469727 47.28964233398438 L 10.00000381469727 95.22531890869141 L 34.88209915161133 95.22531890869141 M 44.88209915161133 105.2253189086914 L 3.864106474793516e-06 105.2253189086914 L 3.864106474793516e-06 45.22500991821289 L 0.1454562395811081 45.22500991821289 C 0.5271229147911072 40.01955795288086 1.658503890037537 34.96079635620117 3.522599220275879 30.14010429382324 C 4.646694183349609 27.23491287231445 6.03719425201416 24.4313907623291 7.657194137573242 21.80791282653809 C 9.261003494262695 19.20870018005371 11.10419464111328 16.76341438293457 13.13369464874268 14.53860378265381 C 15.16409873962402 12.31379508972168 17.39790916442871 10.29150867462158 19.77478981018066 8.527508735656738 C 22.17329025268555 6.747294902801514 24.73828887939453 5.214604377746582 27.39869499206543 3.970794677734375 C 30.10769462585449 2.705389976501465 32.94359970092773 1.727104187011719 35.82809829711914 1.063794732093811 C 38.78550338745117 0.3825089633464813 41.83200454711914 0.02519944310188293 44.88209915161133 8.967808753368445e-06 L 44.88209915161133 105.2253189086914 Z" stroke="none" fill="#183052"/>
    </g>
  </g>
</svg>
