<svg xmlns="http://www.w3.org/2000/svg" width="27.714" height="16.081" viewBox="0 0 27.714 16.081">
  <g id="グループ_18" data-name="グループ 18" transform="translate(-34.489 -642.895)">
    <rect id="長方形_147" data-name="長方形 147" width="16" height="2.656" rx="1.328" transform="translate(40.346 643.895)" fill="#183052"/>
    <rect id="長方形_154" data-name="長方形 154" width="15" height="2.656" rx="1.328" transform="translate(46.493 643.895) rotate(90)" fill="#183052"/>
    <rect id="長方形_155" data-name="長方形 155" width="15" height="2.656" rx="1.328" transform="translate(53.268 643.895) rotate(90)" fill="#183052"/>
    <rect id="長方形_148" data-name="長方形 148" width="8" height="2.656" rx="1.328" transform="translate(44.94 648.576)" fill="#183052"/>
    <rect id="長方形_149" data-name="長方形 149" width="8.5" height="2.318" rx="1.159" transform="translate(34.676 649.299)" fill="#183052"/>
    <rect id="長方形_159" data-name="長方形 159" width="8.5" height="2.318" rx="1.159" transform="translate(53.703 649.299)" fill="#183052"/>
    <rect id="長方形_151" data-name="長方形 151" width="16" height="2.643" rx="1.321" transform="translate(34.489 658.975) rotate(-90)" fill="#183052"/>
    <rect id="長方形_158" data-name="長方形 158" width="16" height="2.643" rx="1.321" transform="translate(59.56 658.895) rotate(-90)" fill="#183052"/>
    <rect id="長方形_152" data-name="長方形 152" width="9.5" height="2.643" rx="1.321" transform="translate(40.759 658.895) rotate(-90)" fill="#183052"/>
    <rect id="長方形_156" data-name="長方形 156" width="9.5" height="2.643" rx="1.321" transform="translate(53.703 658.895) rotate(-90)" fill="#183052"/>
  </g>
</svg>
