<svg xmlns="http://www.w3.org/2000/svg" width="379" height="381" viewBox="0 0 379 381">
  <g id="グループ_12" data-name="グループ 12" transform="translate(-1936 -1432)">
    <g id="楕円形_18" data-name="楕円形 18" transform="translate(1936 1432)" fill="rgba(255,255,255,0)" stroke="#183052" stroke-width="10">
      <circle cx="97.5" cy="97.5" r="97.5" stroke="none"/>
      <circle cx="97.5" cy="97.5" r="92.5" fill="none"/>
    </g>
    <g id="楕円形_19" data-name="楕円形 19" transform="translate(1981 1477)" fill="#183052" stroke="#183052" stroke-width="4">
      <circle cx="52.5" cy="52.5" r="52.5" stroke="none"/>
      <circle cx="52.5" cy="52.5" r="50.5" fill="none"/>
    </g>
    <line id="線_13" data-name="線 13" x2="117.5" transform="translate(2034.5 1627) rotate(90)" fill="none" stroke="#183052" stroke-width="20"/>
    <g id="長方形_128" data-name="長方形 128" transform="translate(2052 1713) rotate(90)" fill="#183052" stroke="#183052" stroke-width="1">
      <rect width="100" height="36" rx="18" stroke="none"/>
      <rect x="0.5" y="0.5" width="99" height="35" rx="17.5" fill="none"/>
    </g>
    <g id="長方形_129" data-name="長方形 129" transform="translate(2150 1432)" fill="#183052" stroke="#183052" stroke-width="1">
      <rect width="112" height="195" rx="19" stroke="none"/>
      <rect x="0.5" y="0.5" width="111" height="194" rx="18.5" fill="none"/>
    </g>
    <g id="長方形_130" data-name="長方形 130" transform="translate(2293.5 1558)" fill="#183052" stroke="#183052" stroke-width="1">
      <rect width="21" height="62" stroke="none"/>
      <rect x="0.5" y="0.5" width="20" height="61" fill="none"/>
    </g>
    <g id="合体_13" data-name="合体 13" transform="translate(2280.757 1435.002)" fill="rgba(255,255,255,0)">
      <path d="M 30.74309539794922 120.4977493286133 L 2.500004053115845 120.4977493286133 L 2.500004053115845 95.20581817626953 L 2.500004053115845 2.676954746246338 C 3.674038410186768 2.829180002212524 4.840085029602051 3.078426361083984 5.987204074859619 3.423020124435425 C 7.918186187744141 4.002892971038818 9.822440147399902 4.861420154571533 11.64725875854492 5.974783897399902 C 13.4606409072876 7.081747531890869 15.21351337432861 8.450729370117188 16.85671234130859 10.04338359832764 C 18.50369453430176 11.64003849029541 20.05434989929199 13.47385692596436 21.46542167663574 15.49374771118164 C 22.88820457458496 17.52934646606445 24.18218612670898 19.7725830078125 25.3117504119873 22.1616382598877 C 26.45602226257324 24.58251190185547 27.44033050537109 27.1737117767334 28.23718643188477 29.86300277709961 C 29.55958557128906 34.32845687866211 30.3678035736084 39.04571151733398 30.63931274414062 43.88334655761719 L 30.74309539794922 45.73240280151367 L 30.74309539794922 120.4977493286133 Z" stroke="none"/>
      <path d="M 28.24310874938965 117.9977569580078 L 28.24310874938965 45.80281066894531 L 28.14324951171875 44.02343368530273 C 27.88257026672363 39.3786735534668 27.10762977600098 34.85313415527344 25.84018898010254 30.57325553894043 C 25.07956886291504 28.00623512268066 24.14126968383789 25.53551483154297 23.05160903930664 23.23019409179688 C 21.98190879821777 20.96771430969238 20.75894927978516 18.84683418273926 19.4160099029541 16.92547416687012 C 18.09594917297363 15.0358943939209 16.64934921264648 13.32429504394531 15.11674976348877 11.83853435516357 C 13.60612964630127 10.37437438964844 12.00041007995605 9.119354248046875 10.34512996673584 8.108914375305176 C 8.702689170837402 7.106794834136963 6.994609832763672 6.335834503173828 5.267909526824951 5.817314624786377 C 5.178680896759033 5.790510177612305 5.08948278427124 5.764401912689209 5.000009536743164 5.738900661468506 L 5.000009536743164 117.9977569580078 L 28.24310874938965 117.9977569580078 M 33.24311065673828 122.9977569580078 L 9.606323146726936e-06 122.9977569580078 L 9.606323146726936e-06 -5.335693458619062e-06 C 2.259569644927979 0.02409466356039047 4.515449523925781 0.3705346584320068 6.706429481506348 1.028714656829834 C 8.842649459838867 1.670214653015137 10.94294929504395 2.616474628448486 12.94934940338135 3.840654611587524 C 14.91984939575195 5.043514728546143 16.8199291229248 6.526154518127441 18.59664916992188 8.248234748840332 C 20.35680961608887 9.954574584960938 22.01154899597168 11.91011428833008 23.51486968994141 14.06203460693359 C 25.01862907409668 16.21347427368164 26.38339042663574 18.57937431335449 27.57184982299805 21.0930347442627 C 28.77136993408203 23.63077545166016 29.80150985717773 26.34265518188477 30.63417053222656 29.15275382995605 C 32.01494979858398 33.81537628173828 32.85279083251953 38.70793533325195 33.13539123535156 43.74325561523438 L 33.24311065673828 43.74325561523438 L 33.24311065673828 122.9977569580078 Z" stroke="none" fill="#183052"/>
    </g>
    <g id="長方形_133" data-name="長方形 133" transform="translate(2099 1669)" fill="#183052" stroke="#183052" stroke-width="1">
      <rect width="216" height="25" rx="7" stroke="none"/>
      <rect x="0.5" y="0.5" width="215" height="24" rx="6.5" fill="none"/>
    </g>
    <g id="長方形_134" data-name="長方形 134" transform="translate(2196 1654)" fill="#183052" stroke="#183052" stroke-width="1">
      <rect width="23" height="27" rx="4" stroke="none"/>
      <rect x="0.5" y="0.5" width="22" height="26" rx="3.5" fill="none"/>
    </g>
    <g id="合体_14" data-name="合体 14" transform="translate(2110 1710)" fill="#183052">
      <path d="M 183.9996032714844 102.4996032714844 L 12.99960327148438 102.4996032714844 C 9.660928726196289 102.4996032714844 6.52202844619751 101.1994018554688 4.161128520965576 98.83847808837891 C 1.800203442573547 96.47757720947266 0.5000033974647522 93.33867645263672 0.5000033974647522 90 L 0.5000033974647522 12.99960136413574 L 0.5000033974647522 0.5000016093254089 L 12.99960327148438 0.5000016093254089 L 183.9996032714844 0.5000016093254089 L 196.5001068115234 0.5000016093254089 L 196.5001068115234 14.71410179138184 L 196.5001068115234 90 C 196.5001068115234 93.33872985839844 195.1998596191406 96.47762298583984 192.8388824462891 98.83847808837891 C 190.4778594970703 101.1994018554688 187.3386840820312 102.4996032714844 183.9996032714844 102.4996032714844 Z" stroke="none"/>
      <path d="M 183.9996032714844 101.9996032714844 C 187.2051239013672 101.9996032714844 190.21875 100.7514038085938 192.4853210449219 98.48492431640625 C 194.7518768310547 96.21849822998047 196.0001068115234 93.20515441894531 196.0001068115234 90 L 196.0001068115234 1.000001668930054 L 1.000003457069397 1.000001668930054 L 1.000003457069397 90 C 1.000003457069397 93.20512390136719 2.24820351600647 96.21845245361328 4.514678478240967 98.48492431640625 C 6.781153202056885 100.7514038085938 9.794478416442871 101.9996032714844 12.99960327148438 101.9996032714844 L 183.9996032714844 101.9996032714844 M 183.9996032714844 102.9996032714844 L 12.99960327148438 102.9996032714844 C 5.820303440093994 102.9996032714844 3.405761617614189e-06 97.17929840087891 3.405761617614189e-06 90 L 3.405761617614189e-06 1.635742137295892e-06 L 197.0001068115234 1.635742137295892e-06 L 197.0001068115234 90 C 197.0001068115234 97.17929840087891 191.1798095703125 102.9996032714844 183.9996032714844 102.9996032714844 Z" stroke="none" fill="#183052"/>
    </g>
  </g>
</svg>
