<svg xmlns="http://www.w3.org/2000/svg" width="25" height="15" viewBox="0 0 25 15">
  <path id="合体_2" data-name="合体 2" d="M6.053,14.828a1.352,1.352,0,0,1-.423-1.743l4.928-9.427a1.164,1.164,0,0,1,.774-.613,1.273,1.273,0,0,1,.468-.089H23.846a1.274,1.274,0,0,1,.4.063,1.124,1.124,0,0,1,1.15.628l4.927,9.426a1.353,1.353,0,0,1-.423,1.744,1.1,1.1,0,0,1-1.579-.467L23.7,5.51H12.259L7.632,14.361a1.139,1.139,0,0,1-1,.638A1.067,1.067,0,0,1,6.053,14.828Zm10-6.411a1.277,1.277,0,0,1,0-2.553h3.53a1.277,1.277,0,0,1,0,2.553ZM11.921,2.553a1.277,1.277,0,0,1,0-2.553H23.967a1.277,1.277,0,0,1,0,2.553Z" transform="translate(-5.476)" fill="#183052"/>
</svg>
