<svg xmlns="http://www.w3.org/2000/svg" width="20" height="25" viewBox="0 0 20 25">
  <path id="合体_6" data-name="合体 6" d="M7.474,27.369a1.474,1.474,0,0,1,0-2.948h4.87L7.727,16.164A1.577,1.577,0,0,1,7.6,14.922a1.56,1.56,0,0,1,.435-1.1L15.3,6.312a2.444,2.444,0,0,1,.117-3.245,2.26,2.26,0,0,1,3.268,0l2,2.062,4.536.756A.964.964,0,0,1,25.729,7.5l-5.94,6.135a.916.916,0,0,1-1.566-.523l-.7-4.506L17.4,8.49l-6.675,6.9,5.02,8.981.03.056h5.385a1.474,1.474,0,0,1,0,2.948ZM21.821,12.911l3.132-3.234a2.331,2.331,0,0,1,.563,1.525A2.258,2.258,0,0,1,23.3,13.492,2.174,2.174,0,0,1,21.821,12.911Z" transform="translate(-6 -2.369)" fill="#183052"/>
</svg>
