<svg xmlns="http://www.w3.org/2000/svg" width="212" height="177" viewBox="0 0 212 177">
  <g id="合体_12" data-name="合体 12" fill="#183052">
    <path d="M 210.0004272460938 175.0003204345703 L 178.0003967285156 175.0003204345703 L 178.0003967285156 144.9999084472656 L 178.0003967285156 142.9999084472656 L 176.0003967285156 142.9999084472656 L 36.0000114440918 142.9999084472656 L 34.0000114440918 142.9999084472656 L 34.0000114440918 144.9999084472656 L 34.0000114440918 175.0003204345703 L 2.000011444091797 175.0003204345703 L 2.000011444091797 76.99951171875 C 2.000011444091797 72.72592926025391 3.66426157951355 68.70803833007812 6.686205863952637 65.68601226806641 C 9.708233833312988 62.66387557983398 13.72623348236084 60.99951553344727 18.0000114440918 60.99951553344727 C 22.27378845214844 60.99951553344727 26.29176139831543 62.66387557983398 29.31378936767578 65.68601226806641 C 32.33576202392578 68.70806884765625 34.0000114440918 72.72592926025391 34.0000114440918 76.99951171875 L 34.0000114440918 108.9999008178711 L 34.0000114440918 110.9999008178711 L 36.0000114440918 110.9999008178711 L 176.0003967285156 110.9999008178711 L 178.0003967285156 110.9999008178711 L 178.0003967285156 108.9999008178711 L 178.0003967285156 77.55538177490234 L 178.0248413085938 77.10884857177734 C 178.4887084960938 68.63676452636719 185.5060119628906 62.00028991699219 194.0004272460938 62.00028991699219 C 202.4947662353516 62.00028991699219 209.5120391845703 68.63676452636719 209.9759521484375 77.10887145996094 L 210.0004272460938 77.55579376220703 L 210.0004272460938 78.00032043457031 L 210.0004272460938 175.0003204345703 Z M 163.0006256103516 99.99971008300781 L 48.00081634521484 99.99971008300781 L 48.00081634521484 75.923095703125 L 48.00081634521484 74.53890228271484 L 48.00081634521484 72.53890228271484 L 47.7889289855957 72.53890228271484 C 46.11465454101562 59.19460678100586 34.69529724121094 49.00028991699219 21.00059509277344 49.00028991699219 C 20.33389091491699 49.00028991699219 19.66568756103516 49.02483367919922 19.00009536743164 49.07358932495117 L 19.00009536743164 35.00009536743164 C 19.00009536743164 30.54373550415039 19.87228965759277 26.22234725952148 21.59248352050781 22.15598678588867 C 23.25384521484375 18.22659683227539 25.6334285736084 14.697096824646 28.66531753540039 11.66523551940918 C 31.6961498260498 8.634374618530273 35.22545623779297 6.254735946655273 39.15520477294922 4.592374801635742 C 43.22231674194336 2.872236013412476 47.5440673828125 2.000013589859009 52.00020599365234 2.000013589859009 L 158.0003967285156 2.000013589859009 C 162.4559631347656 2.000013589859009 166.7774047851562 2.872236013412476 170.8446502685547 4.592430591583252 C 174.7733459472656 6.254708290100098 178.3027648925781 8.634458541870117 181.3346252441406 11.66543006896973 C 184.3662872314453 14.697096824646 186.7458801269531 18.22659683227539 188.4070892333984 22.15565299987793 C 190.1280059814453 26.22376441955566 191.0005187988281 30.54512405395508 191.0005187988281 35.00009536743164 L 191.0005187988281 49.01860809326172 C 190.6668548583984 49.00641632080078 190.3333435058594 49.00028991699219 190.0008239746094 49.00028991699219 C 176.3056335449219 49.00028991699219 164.8858795166016 59.19460678100586 163.2115631103516 72.53890228271484 L 163.0006256103516 72.53890228271484 L 163.0006256103516 74.53890228271484 L 163.0006256103516 99.99971008300781 Z" stroke="none"/>
    <path d="M 208.0004119873047 173.0003051757812 L 208.0004119873047 77.61030578613281 L 207.9789428710938 77.21820831298828 C 207.5731201171875 69.80629730224609 201.4329986572266 64.00029754638672 194.0004119873047 64.00029754638672 C 186.5677947998047 64.00029754638672 180.4276733398438 69.80629730224609 180.0218505859375 77.21818542480469 L 180.0004119873047 77.6097412109375 L 180.0004119873047 112.999885559082 L 32 112.999885559082 L 32 76.99950408935547 C 32 73.26015472412109 30.54376411437988 69.7445068359375 27.89955902099609 67.10018157958984 C 25.25526428222656 64.45582580566406 21.73955917358398 62.99950408935547 18 62.99950408935547 C 14.26047039031982 62.99950408935547 10.74473571777344 64.45582580566406 8.100470542907715 67.10021209716797 C 5.456235408782959 69.7445068359375 4 73.26015472412109 4 76.99950408935547 L 4 173.0003051757812 L 32 173.0003051757812 L 32 140.9999237060547 L 180.0004119873047 140.9999237060547 L 180.0004119873047 173.0003051757812 L 208.0004119873047 173.0003051757812 M 161.0006103515625 97.99971008300781 L 161.0006103515625 70.53891754150391 L 161.5014953613281 70.53891754150391 C 163.9786682128906 57.39109039306641 175.3387145996094 47.47995758056641 189.0005035400391 47.01723098754883 L 189.0005035400391 35.00009536743164 C 189.0005035400391 30.81424140930176 188.1811828613281 26.7550048828125 186.5649719238281 22.93450546264648 C 185.0045623779297 19.24391746520996 182.7689361572266 15.92818164825439 179.9205932617188 13.07982921600342 C 177.0716705322266 10.23174095153809 173.7557983398438 7.995829105377197 170.0655822753906 6.434446811676025 C 166.2461547851562 4.819064140319824 162.1868286132812 4.000005722045898 158.0004119873047 4.000005722045898 L 52.00020599365234 4.000005722045898 C 47.81317520141602 4.000005722045898 43.75355911254883 4.819064140319824 39.93438339233398 6.434329032897949 C 36.24300003051758 7.995858669281006 32.92735290527344 10.23159408569336 30.07952880859375 13.07944679260254 C 27.23076438903809 15.92818164825439 24.99514770507812 19.24391746520996 23.43444061279297 22.93521118164062 C 21.81911849975586 26.75362396240234 21.00008773803711 30.81285858154297 21.00008773803711 35.00009536743164 L 21.00008773803711 47.00030136108398 C 21.00027847290039 47.00030136108398 21.00042915344238 47.00030136108398 21.00061798095703 47.00030136108398 C 35.10442733764648 47.00030136108398 46.96177291870117 57.07163619995117 49.4990234375 70.53891754150391 L 50.00079345703125 70.53891754150391 L 50.00079345703125 97.99971008300781 L 161.0006103515625 97.99971008300781 M 212.0004119873047 177.0003051757812 L 176.0004119873047 177.0003051757812 L 176.0004119873047 144.9999237060547 L 36 144.9999237060547 L 36 177.0003051757812 L 1.112993999186074e-07 177.0003051757812 L 1.112993999186074e-07 76.99950408935547 C 1.112993999186074e-07 67.05900573730469 8.05861759185791 58.99950408935547 18 58.99950408935547 C 27.9414119720459 58.99950408935547 36 67.05900573730469 36 76.99950408935547 L 36 108.999885559082 L 176.0004119873047 108.999885559082 L 176.0004119873047 76.99950408935547 L 176.0278167724609 76.99950408935547 C 176.5466766357422 67.52323913574219 184.3945617675781 60.00030136108398 194.0004119873047 60.00030136108398 C 203.6053771972656 60.00030136108398 211.4540863037109 67.52323913574219 211.9729766845703 76.99950408935547 L 212.0004119873047 76.99950408935547 L 212.0004119873047 177.0003051757812 Z M 165.0006103515625 101.9997100830078 L 46.00079345703125 101.9997100830078 L 46.00079345703125 74.53891754150391 L 45.96208953857422 74.53891754150391 C 45.23761749267578 61.33950424194336 34.27379608154297 51.00030136108398 21.00061798095703 51.00030136108398 C 19.65958786010742 51.00030136108398 18.31320571899414 51.10741806030273 17.00008773803711 51.3180046081543 L 17.00008773803711 35.00009536743164 C 17.00008773803711 30.27509307861328 17.92529487609863 25.69138717651367 19.7504997253418 21.37680053710938 C 21.5127067565918 17.20891761779785 24.03629493713379 13.46579933166504 27.25108909606934 10.25100517272949 C 30.46500015258789 7.037093639373779 34.20808792114258 4.513505458831787 38.37599945068359 2.750387907028198 C 42.69150161743164 0.9252114295959473 47.27520751953125 5.529067038878566e-06 52.00020599365234 5.529067038878566e-06 L 158.0004119873047 5.529067038878566e-06 C 162.7245025634766 5.529067038878566e-06 167.3082122802734 0.9252114295959473 171.6237030029297 2.750387907028198 C 175.7907104492188 4.513505458831787 179.5337982177734 7.037093639373779 182.7486114501953 10.25100517272949 C 185.9634094238281 13.46579933166504 188.4869995117188 17.20891761779785 190.2492065429688 21.37680053710938 C 192.0744171142578 25.69138717651367 193.0005035400391 30.27509307861328 193.0005035400391 35.00009536743164 L 193.0005035400391 51.17759323120117 C 192.0149993896484 51.06059265136719 191.0061187744141 51.00030136108398 190.0008239746094 51.00030136108398 C 176.7276153564453 51.00030136108398 165.7629089355469 61.33950424194336 165.0384063720703 74.53891754150391 L 165.0006103515625 74.53891754150391 L 165.0006103515625 101.9997100830078 Z" stroke="none" fill="#183052"/>
  </g>
</svg>
