<svg xmlns="http://www.w3.org/2000/svg" width="20" height="25" viewBox="0 0 20 25">
  <path id="合体_5" data-name="合体 5" d="M20.43,24.879a.96.96,0,0,1-.469.122H3.208l-.066,0-.068,0A1.074,1.074,0,0,1,2,23.927V1.2A1.074,1.074,0,0,1,3.074.128a1.062,1.062,0,0,1,.194.018A.954.954,0,0,1,3.777,0H20.531a.961.961,0,0,1,.487.131A1.074,1.074,0,0,1,22,1.2V23.927a1.074,1.074,0,0,1-1.57.952ZM4.146,23.071H19.853V16.295H4.146Zm15.707-8.7V1.93h-7.2V14.257a1.086,1.086,0,0,1-.005.109Zm-9.337,0a1.086,1.086,0,0,1-.005-.109V1.93H4.146V14.366Zm3.5-6.569a1.016,1.016,0,1,1,1.015,1.037A1.026,1.026,0,0,1,14.021,7.8Zm-6.9,0A1.016,1.016,0,1,1,8.132,8.833,1.026,1.026,0,0,1,7.116,7.8Z" transform="translate(-2)" fill="#183052"/>
</svg>
